<svg xml:space="preserve" viewBox="53.15028901734104 230.02079999999998 810.5419075144509 204.7584" y="0px" x="0px" xmlns:xlink="http://www.w3.org/1999/xlink" xmlns="http://www.w3.org/2000/svg" id="Layer_1" version="1.0">
<style type="text/css">
	.st0{fill:#00D54B;}
	.st1{fill:#FFFFFF;}
</style>
<path d="M384.4,313.8c-0.7,0.4-1.4,0.5-2.2,0.4c-0.8-0.2-1.4-0.6-1.9-1.2c-4.5-6.5-12.1-10.3-20-10.1&#10;&#9;c-15.2,0-24.6,12.1-24.6,29.3c0,17.2,9.5,29.5,24.8,29.5c4,0.1,7.9-0.8,11.4-2.7c3.5-1.8,6.5-4.5,8.6-7.9c0.4-0.6,1.1-1.1,1.8-1.2&#10;&#9;c0.7-0.2,1.5-0.1,2.2,0.3l7.2,4.2c0.4,0.2,0.7,0.5,1,0.8c0.3,0.3,0.5,0.7,0.6,1.2c0.1,0.4,0.1,0.9,0,1.3c-0.1,0.4-0.3,0.8-0.5,1.2&#10;&#9;c-7.2,10.8-19.4,17.1-32.4,16.8c-24.3,0-40.8-17.7-40.8-43.4c0-25.7,16.5-43.2,40.5-43.2c12.7-0.3,24.8,5.7,32.2,16&#10;&#9;c0.3,0.3,0.4,0.7,0.5,1.2c0.1,0.4,0.1,0.8,0,1.3c-0.1,0.4-0.2,0.8-0.5,1.2c-0.2,0.4-0.5,0.7-0.9,0.9L384.4,313.8z" class="st0"/>
<path d="M437.7,371.1v-3.5c-3.8,4.9-9.1,8-17.7,8c-12.6,0-21.4-6.9-21.4-19c0-15.1,13.5-17.7,21.8-18.9&#10;&#9;c8.9-1.3,16.5-1.9,16.5-7.7c0-5.2-6-6.5-11-6.5c-5.8,0.1-11.5,1.5-16.6,4.2c-0.4,0.2-0.7,0.3-1.1,0.4c-0.4,0-0.8,0-1.2-0.1&#10;&#9;c-0.4-0.1-0.7-0.3-1-0.6c-0.3-0.3-0.6-0.6-0.7-1l-2.6-5.4c-0.3-0.7-0.4-1.5-0.2-2.3c0.2-0.7,0.7-1.4,1.4-1.8&#10;&#9;c7.2-3.8,15.2-5.9,23.4-5.9c14.5,0,24.8,6,24.8,20.4v39.8c0,1.7-1.3,3-3,3c0,0,0,0-0.1,0h-8c-0.4,0-0.8,0-1.2-0.2&#10;&#9;c-0.4-0.2-0.7-0.4-1-0.6c-0.3-0.3-0.5-0.6-0.7-1C437.8,371.9,437.7,371.5,437.7,371.1L437.7,371.1z M436.9,343.6&#10;&#9;c-2.8,2.1-8,2.8-13.5,3.8s-10.1,2.5-10.1,8.4c0,5.5,4,8.1,9.7,8.1c7.1,0,13.8-4,13.8-13.2V343.6z" class="st0"/>
<path d="M465,358.4c1.1-1.3,2.9-1.4,4.2-0.4c5.1,3.8,11.3,5.9,17.7,5.7c6.6,0,11.4-2.1,11.4-7.3c0-4.7-4.5-5.6-15.2-7.5&#10;&#9;c-11.4-1.9-22.4-5.7-22.4-18.8c0-13.6,11.7-19.3,25.1-19.3c8.4-0.1,16.5,2.6,23.2,7.6c0.7,0.5,1.1,1.3,1.1,2.1c0,0.4,0,0.8-0.1,1.2&#10;&#9;c-0.1,0.4-0.3,0.8-0.6,1.1l-3.8,4.5c-0.5,0.6-1.2,1-2,1.1c-0.8,0.1-1.6-0.1-2.2-0.6c-4.7-3.4-10.4-5.2-16.2-5.2&#10;&#9;c-5.6,0-10.5,1.6-10.5,6.1c0,4.9,6.9,5.9,13.8,7c14.8,2.6,24.1,6.8,24.1,19c0,12.9-10.3,20.8-26.7,20.8c-8.9,0.3-17.7-2.6-24.8-8.1&#10;&#9;c-0.6-0.5-1-1.3-1.1-2.1c0-0.4,0-0.8,0.1-1.2c0.1-0.4,0.3-0.8,0.6-1.1L465,358.4z" class="st0"/>
<path d="M521.7,371.1v-77.5c0-1.7,1.3-3,3-3h8.8c1.7,0,3,1.4,3,3v26.5c4.4-5.9,11.5-9.3,18.9-9.1&#10;&#9;c13,0,20.6,9.2,20.6,22.5v37.7c0,1.7-1.3,3-3,3h-8.8c-1.7,0-3-1.3-3-2.9c0,0,0,0,0-0.1v-34.3c0-6.6-2.1-12.5-10.5-12.5&#10;&#9;c-8,0-14.1,5.6-14.1,15v31.9c0,0.8-0.3,1.6-0.9,2.1c-0.6,0.6-1.3,0.9-2.1,0.9h-8.8c-0.4,0-0.8-0.1-1.2-0.2c-0.7-0.3-1.3-0.9-1.6-1.7&#10;&#9;C521.8,371.9,521.7,371.5,521.7,371.1L521.7,371.1z" class="st0"/>
<path d="M672.7,372.1l-6.3-18.7h-32l-6.3,18.7c-0.2,0.6-0.6,1.1-1.1,1.5c-0.5,0.4-1.1,0.6-1.8,0.6h-10.3&#10;&#9;c-1,0-1.9-0.5-2.5-1.3c-0.3-0.4-0.5-0.9-0.5-1.3c-0.1-0.5,0-1,0.2-1.4l28.8-77.5c0.5-1.2,1.6-1.9,2.9-1.9h14.1&#10;&#9;c0.6,0,1.2,0.2,1.8,0.5c0.5,0.4,0.9,0.9,1.1,1.5l28.7,77.5c0.2,0.5,0.2,1,0.2,1.4c-0.1,0.5-0.2,1-0.5,1.4c-0.3,0.4-0.7,0.7-1.1,1&#10;&#9;c-0.4,0.2-0.9,0.3-1.4,0.3h-10.9C674.2,374.2,673.1,373.4,672.7,372.1L672.7,372.1z M650.6,304.1l-12.3,36.3h24.1L650.6,304.1z" class="st0"/>
<path d="M711.4,315.4v4.8c4.4-6.1,11.5-9.5,19-9.3c16.9,0,27.8,14,27.8,32.2c0,18.2-10.9,32.4-27.8,32.4&#10;&#9;c-7.5,0.3-14.6-3.3-19-9.4v25.2c0,1.7-1.3,3-2.9,3c0,0,0,0-0.1,0h-8.8c-1.7,0-3-1.3-3-3c0,0,0,0,0-0.1v-76.2c0-1.7,1.3-3,3-3h8.8&#10;&#9;c0.4,0,0.8,0.1,1.2,0.2c0.4,0.2,0.7,0.4,1,0.7c0.3,0.3,0.5,0.6,0.7,1C711.3,314.6,711.4,315,711.4,315.4z M727.3,362.6&#10;&#9;c10.3,0,15.2-8.8,15.2-19.4s-5-19.2-15.2-19.2s-15.9,8.5-15.9,19.2C711.4,353.8,716.8,362.6,727.3,362.6L727.3,362.6z" class="st0"/>
<path d="M782.2,315.4v4.8c4.4-6.1,11.5-9.5,19-9.3c16.9,0,27.8,14,27.8,32.2c0,18.2-10.9,32.4-27.8,32.4&#10;&#9;c-7.5,0.3-14.6-3.3-19-9.4v25.2c0,1.7-1.3,3-2.9,3c0,0,0,0-0.1,0h-8.8c-1.7,0-3-1.4-3-3v-76.2c0-1.6,1.4-3,3-3h8.8&#10;&#9;c0.4,0,0.8,0.1,1.2,0.2c0.4,0.2,0.7,0.4,1,0.7c0.3,0.3,0.5,0.6,0.7,1C782.2,314.6,782.3,315,782.2,315.4L782.2,315.4z M798.2,362.6&#10;&#9;c10.3,0,15.2-8.8,15.2-19.5s-5-19.2-15.2-19.2s-15.9,8.6-15.9,19.2C782.2,353.8,787.7,362.6,798.2,362.6L798.2,362.6z" class="st0"/>
<path d="M128,250.8h87.1c20.8,0,37.6,16.8,37.6,37.6v88c0,20.8-16.8,37.6-37.6,37.6H128c-20.8,0-37.6-16.8-37.6-37.6&#10;&#9;v-88C90.4,267.6,107.3,250.8,128,250.8z" class="st0"/>
<path d="M198,311.5c-6.2-5.2-14.1-8.1-22.2-8.1c-6.7,0-13.4,2.2-13.4,8.4c0,5.6,6,7.8,13.3,10.5l2.2,0.8&#10;&#9;c14.5,4.9,26.5,10.9,26.5,25.1c0,15.5-12,26-31.6,27.2l-1.8,8.3c-0.3,1.5-1.7,2.6-3.2,2.6h-12.4c-1,0-2-0.5-2.6-1.3&#10;&#9;c-0.6-0.8-0.9-1.8-0.7-2.8l1.9-8.8c-7.4-1.9-14.2-5.6-19.8-10.8c-1.3-1.3-1.4-3.4-0.1-4.7c0,0,0.1-0.1,0.1-0.1l6.8-6.7&#10;&#9;c1.3-1.3,3.4-1.3,4.7,0c6.3,6,14.6,9.3,23.3,9.1c8.9,0,15-3.8,15-9.8c0-5.4-5-7.2-14.4-10.7l-3.1-1.2c-12.1-4.3-23.6-10.5-23.6-24.8&#10;&#9;c0-16.6,13.9-24.7,30.2-25.5l1.7-8.4c0.3-1.5,1.7-2.6,3.3-2.6h12.3c1.8,0,3.3,1.5,3.3,3.3c0,0.2,0,0.5-0.1,0.7l-1.9,9.4&#10;&#9;c6.3,2,12.1,5.3,17.1,9.6c0.7,0.6,1.1,1.4,1.1,2.4c0,0.9-0.3,1.8-1,2.4l-6.4,6.4C201.3,312.6,199.3,312.6,198,311.5z" class="st1"/>
</svg>